Coordinates
version=1
nRows=9
nColumns=24
inDegrees=yes

Units are S.I. units (second, meters, Newtons, ...)
Angles are in degrees.

endheader
time	pelvis_tilt	pelvis_list	pelvis_rotation	pelvis_tx	pelvis_ty	pelvis_tz	hip_flexion_r	hip_adduction_r	hip_rotation_r	knee_angle_r	ankle_angle_r	subtalar_angle_r	mtp_angle_r	hip_flexion_l	hip_adduction_l	hip_rotation_l	knee_angle_l	ankle_angle_l	subtalar_angle_l	mtp_angle_l	lumbar_extension	lumbar_bending	lumbar_rotation
      3.74000000	    -13.38527113	      6.30055324	     -4.46341459	     -0.95591714	     -0.06357081	      0.52410396	     17.00840137	     -7.36282927	      0.74834320	    -64.22936128	    -27.59080590	      8.16539900	     22.43467372	     39.03612397	      9.20748496	     -0.07754719	    -36.03343485	      3.14073767	     12.33011268	     14.89208677	     11.56587530	     -6.56667864	      8.55098032
      3.74500000	    -13.24637377	      6.41715515	     -4.22865055	     -0.94804229	     -0.06224867	      0.52341268	     17.88425843	     -7.46055312	      0.66399936	    -65.15090418	    -26.65043909	      7.63410084	     23.04960959	     38.12962217	      9.59957212	      0.15966669	    -35.69738599	      3.63379986	     12.44655181	     14.85718416	     11.40872014	     -6.70778675	      8.20903145
      3.75000000	    -12.98200225	      6.47809949	     -3.96664270	     -0.94006077	     -0.06070808	      0.52257859	     18.56873407	     -7.53681996	      0.53882317	    -65.90915956	    -25.66939087	      7.34846954	     23.94934781	     37.04554657	      9.99202042	      0.46841854	    -35.32812224	      4.14240835	     12.42977368	     14.57285882	     11.11504692	     -6.78330226	      7.85475477
      3.75500000	    -12.74382169	      6.53891892	     -3.74852130	     -0.93209683	     -0.05913578	      0.52185537	     19.30364283	     -7.58142124	      0.45593094	    -66.59838605	    -24.75867011	      7.02889243	     24.73442488	     35.96465837	     10.34183148	      0.78761715	    -34.91423338	      4.61065380	     12.46143665	     14.32861712	     10.85919268	     -6.85216219	      7.53966245
      3.76000000	    -12.50757577	      6.57283230	     -3.53366618	     -0.92409248	     -0.05751183	      0.52115279	     20.02924781	     -7.59065746	      0.36643504	    -67.19502723	    -23.85326425	      6.77383660	     25.41596758	     34.85517452	     10.65736895	      1.14034555	    -34.45411455	      5.02833486	     12.46351886	     14.12474023	     10.61485190	     -6.88817716	      7.21375575
      3.76500000	    -12.23965063	      6.59038234	     -3.34916901	     -0.91606432	     -0.05580321	      0.52047714	     20.71491670	     -7.57031002	      0.30327573	    -67.69022194	    -22.99606436	      6.58030688	     26.10826096	     33.67767347	     10.94867198	      1.55238584	    -33.94741493	      5.42000761	     12.43088345	     13.86809051	     10.34350576	     -6.89952795	      6.93130739
      3.77000000	    -11.98266175	      6.56829463	     -3.14316693	     -0.90802459	     -0.05409075	      0.51980545	     21.39015244	     -7.51229120	      0.19455883	    -68.09517160	    -22.11385643	      6.43115899	     26.69334408	     32.49928447	     11.19310958	      1.95963278	    -33.41911652	      5.75538623	     12.36919468	     13.66883184	     10.08358284	     -6.87295931	      6.58291217
      3.77500000	    -11.69991919	      6.52846607	     -2.96554405	     -0.89994545	     -0.05231719	      0.51916436	     22.02508362	     -7.42368303	      0.10654232	    -68.39817928	    -21.27161111	      6.32929191	     27.26769279	     31.25927905	     11.40925013	      2.42175714	    -32.84272581	      6.06131065	     12.26160931	     13.43265589	      9.80641378	     -6.81911499	      6.28044683
      3.78000000	    -11.42694261	      6.46326207	     -2.78100413	     -0.89188429	     -0.05055022	      0.51854540	     22.65716972	     -7.30487100	     -0.00077250	    -68.61503195	    -20.44640036	      6.25523295	     27.77284313	     30.01647265	     11.58979417	      2.91435624	    -32.24421168	      6.33184012	     12.14946779	     13.21734991	      9.53610457	     -6.74271657	      5.94120602
